<svg xmlns="http://www.w3.org/2000/svg" xmlns:xlink="http://www.w3.org/1999/xlink" width="500" zoomAndPan="magnify" viewBox="0 0 375 374.999991" height="500" preserveAspectRatio="xMidYMid meet" version="1.0"><defs><g/><clipPath id="121300bc63"><path d="M 15.242188 157.09375 L 359.757812 157.09375 L 359.757812 217.90625 L 15.242188 217.90625 Z M 15.242188 157.09375 " clip-rule="nonzero"/></clipPath><clipPath id="8bdc08d852"><path d="M 15.25 157.09375 L 359.492188 157.09375 L 359.492188 217.84375 L 15.25 217.84375 Z M 15.25 157.09375 " clip-rule="nonzero"/></clipPath></defs><g clip-path="url(#121300bc63)"><path fill="#000000" d="M 15.242188 157.09375 L 359.695312 157.09375 L 359.695312 217.90625 L 15.242188 217.90625 Z M 15.242188 157.09375 " fill-opacity="1" fill-rule="nonzero"/></g><g clip-path="url(#8bdc08d852)"><path stroke-linecap="butt" transform="matrix(0.75, 0, 0, 0.75, 15.251734, 157.093158)" fill="none" stroke-linejoin="miter" d="M -0.00231229 0.000788688 L 459.315426 0.000788688 L 459.315426 81.078919 L -0.00231229 81.078919 Z M -0.00231229 0.000788688 " stroke="#ffffff" stroke-width="8" stroke-opacity="1" stroke-miterlimit="4"/></g><g fill="#ffffff" fill-opacity="1"><g transform="translate(24.453029, 199.267898)"><g><path d="M 14.859375 -29.578125 L 26.078125 -11.484375 L 26.15625 -11.484375 L 29.015625 -29.578125 L 36.703125 -29.578125 L 32.046875 0 L 24.359375 0 L 13.140625 -18.125 L 13.0625 -18.125 L 10.203125 0 L 2.515625 0 L 7.171875 -29.578125 Z M 14.859375 -29.578125 "/></g></g></g><g fill="#ffffff" fill-opacity="1"><g transform="translate(54.850044, 199.267898)"><g><path d="M 24.28125 -29.578125 L 30.75 0 L 22.546875 0 L 21.453125 -5.140625 L 10.859375 -5.140625 L 8 0 L -0.15625 0 L 15.890625 -29.578125 Z M 13.921875 -11.015625 L 20.3125 -11.015625 L 18.671875 -20.4375 L 18.59375 -20.4375 Z M 13.921875 -11.015625 "/></g></g></g><g fill="#ffffff" fill-opacity="1"><g transform="translate(81.324817, 199.267898)"><g><path d="M 14.703125 -29.578125 L 12.28125 -13.96875 C 12.039062 -12.550781 11.921875 -11.398438 11.921875 -10.515625 C 11.921875 -9.023438 12.238281 -7.894531 12.875 -7.125 C 13.519531 -6.351562 14.628906 -5.96875 16.203125 -5.96875 C 18.109375 -5.96875 19.5625 -6.585938 20.5625 -7.828125 C 21.570312 -9.066406 22.273438 -11.019531 22.671875 -13.6875 L 25.140625 -29.578125 L 32.828125 -29.578125 L 30.15625 -12.546875 C 29.632812 -9.097656 28.734375 -6.46875 27.453125 -4.65625 C 26.171875 -2.851562 24.460938 -1.492188 22.328125 -0.578125 C 20.203125 0.328125 17.804688 0.78125 15.140625 0.78125 C 11.523438 0.78125 8.75 0.00390625 6.8125 -1.546875 C 4.882812 -3.097656 3.921875 -5.367188 3.921875 -8.359375 C 3.921875 -8.898438 3.945312 -9.5 4 -10.15625 C 4.050781 -10.8125 5.054688 -17.285156 7.015625 -29.578125 Z M 14.703125 -29.578125 "/></g></g></g><g fill="#ffffff" fill-opacity="1"><g transform="translate(107.681919, 199.267898)"><g><path d="M 14.859375 -29.578125 L 12.9375 -17.375 L 13.015625 -17.375 L 24.234375 -29.578125 L 33.765625 -29.578125 L 19.8125 -15.5625 L 30.15625 0 L 20.203125 0 L 12.3125 -12.828125 L 12.234375 -12.828125 L 10.203125 0 L 2.515625 0 L 7.171875 -29.578125 Z M 14.859375 -29.578125 "/></g></g></g><g fill="#ffffff" fill-opacity="1"><g transform="translate(133.254573, 199.267898)"><g><path d="M 18.859375 -29.578125 C 21.523438 -29.578125 23.660156 -28.945312 25.265625 -27.6875 C 26.878906 -26.4375 27.6875 -24.632812 27.6875 -22.28125 C 27.6875 -19.769531 26.941406 -17.550781 25.453125 -15.625 C 23.960938 -13.707031 22.054688 -12.539062 19.734375 -12.125 L 27.09375 0 L 17.53125 0 L 12.078125 -11.375 L 12 -11.375 L 10.203125 0 L 2.515625 0 L 7.171875 -29.578125 Z M 12.78125 -16.3125 L 13.84375 -16.3125 C 15.644531 -16.3125 17.039062 -16.691406 18.03125 -17.453125 C 19.03125 -18.210938 19.53125 -19.320312 19.53125 -20.78125 C 19.53125 -22.71875 17.9375 -23.6875 14.75 -23.6875 L 13.96875 -23.6875 Z M 12.78125 -16.3125 "/></g></g></g><g fill="#ffffff" fill-opacity="1"><g transform="translate(155.767864, 199.267898)"><g><path d="M 14.859375 -29.578125 L 10.203125 0 L 2.515625 0 L 7.171875 -29.578125 Z M 14.859375 -29.578125 "/></g></g></g><path stroke-linecap="butt" transform="matrix(0.735495, 0, 0, 0.735495, 165.773254, 160.28668)" fill="none" stroke-linejoin="miter" d="M 16.900014 12.792251 L 22.774037 37.217776 L 36.365017 12.792251 L 47.730667 12.792251 L 24.218643 53.00222 L 16.103356 53.00222 L 5.544986 12.792251 Z M 67.933906 12.792251 L 76.734318 53.00222 L 65.591732 53.00222 L 64.104638 46.007566 L 49.706378 46.007566 L 45.813377 53.00222 L 34.718591 53.00222 L 56.531079 12.792251 Z M 53.85962 38.014433 L 62.559122 38.014433 L 60.317858 25.2148 L 60.211637 25.2148 Z M 107.288796 26.282321 C 106.476205 24.858959 105.313085 23.764883 103.799435 23.000092 C 102.291097 22.240611 100.628737 21.858215 98.812358 21.858215 C 95.43984 21.858215 92.486896 23.154112 89.958835 25.751216 C 87.436086 28.343009 86.172056 31.423419 86.172056 34.981823 C 86.172056 37.64266 87.027135 39.804258 88.737294 41.466617 C 90.447452 43.113043 92.704649 43.936256 95.508884 43.936256 C 97.219043 43.936256 98.929201 43.55386 100.649982 42.79438 C 102.376073 42.029588 103.900345 40.988622 105.217486 39.66617 L 103.188664 52.205562 C 102.439806 52.449871 101.138598 52.816333 99.269108 53.310261 C 97.404929 53.814811 95.546061 54.069741 93.697816 54.069741 C 90.458074 54.069741 87.436086 53.363372 84.621229 51.955943 C 81.816994 50.553826 79.554486 48.583426 77.828394 46.044743 C 76.107614 43.50606 75.23129 40.542494 75.194113 37.154043 C 75.194113 32.607783 76.314745 28.406742 78.556008 24.550918 C 80.791961 20.689784 83.893615 17.58813 87.850348 15.240646 C 91.817703 12.898472 95.901902 11.72473 100.102943 11.72473 C 103.087754 11.72473 106.162853 12.399233 109.322928 13.742929 Z M 133.472279 12.792251 L 142.278002 53.00222 L 131.130105 53.00222 L 129.648322 46.007566 L 115.244751 46.007566 L 111.35175 53.00222 L 100.262275 53.00222 L 122.069451 12.792251 Z M 119.397993 38.014433 L 128.097495 38.014433 L 125.856231 25.2148 L 125.755321 25.2148 Z M 156.670951 12.792251 L 171.929601 37.377107 L 172.035822 37.377107 L 175.928822 12.792251 L 186.380971 12.792251 L 180.028954 53.00222 L 169.587427 53.00222 L 154.328777 28.364253 L 154.222556 28.364253 L 150.329555 53.00222 L 139.877406 53.00222 L 146.229424 12.792251 Z M 214.15777 26.282321 C 213.339868 24.858959 212.176747 23.764883 210.668409 23.000092 C 209.16007 22.240611 207.497711 21.858215 205.681332 21.858215 C 202.303503 21.858215 199.35587 23.154112 196.827809 25.751216 C 194.299749 28.343009 193.04103 31.423419 193.04103 34.981823 C 193.04103 37.64266 193.896109 39.804258 195.606267 41.466617 C 197.316426 43.113043 199.573623 43.936256 202.372547 43.936256 C 204.082705 43.936256 205.798175 43.55386 207.518955 42.79438 C 209.245047 42.029588 210.769319 40.988622 212.08646 39.66617 L 210.057638 52.205562 C 209.30878 52.449871 208.002261 52.816333 206.138082 53.310261 C 204.273903 53.814811 202.415035 54.069741 200.566789 54.069741 C 197.327048 54.069741 194.299749 53.363372 191.490203 51.955943 C 188.685968 50.553826 186.42346 48.583426 184.692057 46.044743 C 182.976588 43.50606 182.100264 40.542494 182.063087 37.154043 C 182.063087 32.607783 183.183719 28.406742 185.424982 24.550918 C 187.660935 20.689784 190.762589 17.58813 194.719322 15.240646 C 198.686677 12.898472 202.770876 11.72473 206.971917 11.72473 C 209.956728 11.72473 213.031827 12.399233 216.186591 13.742929 Z M 225.199445 12.792251 L 231.020357 23.717083 L 240.235031 12.792251 L 252.774423 12.792251 L 234.637183 33.691238 L 231.604573 53.00222 L 221.152424 53.00222 L 224.185034 33.691238 L 212.675986 12.792251 Z M 225.199445 12.792251 " stroke="#000000" stroke-width="5.399997" stroke-opacity="1" stroke-miterlimit="4"/><g fill="#ffffff" fill-opacity="1"><g transform="translate(165.773254, 199.267898)"><g><path d="M 12.4375 -29.578125 L 16.75 -11.609375 L 26.75 -29.578125 L 35.09375 -29.578125 L 17.8125 0 L 11.84375 0 L 4.078125 -29.578125 Z M 12.4375 -29.578125 "/></g></g></g><g fill="#ffffff" fill-opacity="1"><g transform="translate(191.463579, 199.267898)"><g><path d="M 24.28125 -29.578125 L 30.75 0 L 22.546875 0 L 21.453125 -5.140625 L 10.859375 -5.140625 L 8 0 L -0.15625 0 L 15.890625 -29.578125 Z M 13.921875 -11.015625 L 20.3125 -11.015625 L 18.671875 -20.4375 L 18.59375 -20.4375 Z M 13.921875 -11.015625 "/></g></g></g><g fill="#ffffff" fill-opacity="1"><g transform="translate(217.938352, 199.267898)"><g><path d="M 26.75 -19.65625 C 26.144531 -20.695312 25.285156 -21.5 24.171875 -22.0625 C 23.066406 -22.625 21.847656 -22.90625 20.515625 -22.90625 C 18.023438 -22.90625 15.851562 -21.945312 14 -20.03125 C 12.144531 -18.125 11.21875 -15.863281 11.21875 -13.25 C 11.21875 -11.289062 11.84375 -9.703125 13.09375 -8.484375 C 14.351562 -7.273438 16.015625 -6.671875 18.078125 -6.671875 C 19.335938 -6.671875 20.597656 -6.953125 21.859375 -7.515625 C 23.128906 -8.078125 24.25 -8.835938 25.21875 -9.796875 L 23.734375 -0.59375 C 23.179688 -0.40625 22.21875 -0.128906 20.84375 0.234375 C 19.46875 0.597656 18.101562 0.78125 16.75 0.78125 C 14.363281 0.78125 12.140625 0.265625 10.078125 -0.765625 C 8.015625 -1.796875 6.347656 -3.242188 5.078125 -5.109375 C 3.804688 -6.984375 3.160156 -9.160156 3.140625 -11.640625 C 3.140625 -14.992188 3.960938 -18.085938 5.609375 -20.921875 C 7.253906 -23.753906 9.535156 -26.035156 12.453125 -27.765625 C 15.367188 -29.492188 18.367188 -30.359375 21.453125 -30.359375 C 23.648438 -30.359375 25.910156 -29.859375 28.234375 -28.859375 Z M 26.75 -19.65625 "/></g></g></g><g fill="#ffffff" fill-opacity="1"><g transform="translate(239.6672, 199.267898)"><g><path d="M 24.28125 -29.578125 L 30.75 0 L 22.546875 0 L 21.453125 -5.140625 L 10.859375 -5.140625 L 8 0 L -0.15625 0 L 15.890625 -29.578125 Z M 13.921875 -11.015625 L 20.3125 -11.015625 L 18.671875 -20.4375 L 18.59375 -20.4375 Z M 13.921875 -11.015625 "/></g></g></g><g fill="#ffffff" fill-opacity="1"><g transform="translate(266.141973, 199.267898)"><g><path d="M 14.859375 -29.578125 L 26.078125 -11.484375 L 26.15625 -11.484375 L 29.015625 -29.578125 L 36.703125 -29.578125 L 32.046875 0 L 24.359375 0 L 13.140625 -18.125 L 13.0625 -18.125 L 10.203125 0 L 2.515625 0 L 7.171875 -29.578125 Z M 14.859375 -29.578125 "/></g></g></g><g fill="#ffffff" fill-opacity="1"><g transform="translate(296.538993, 199.267898)"><g><path d="M 26.75 -19.65625 C 26.144531 -20.695312 25.285156 -21.5 24.171875 -22.0625 C 23.066406 -22.625 21.847656 -22.90625 20.515625 -22.90625 C 18.023438 -22.90625 15.851562 -21.945312 14 -20.03125 C 12.144531 -18.125 11.21875 -15.863281 11.21875 -13.25 C 11.21875 -11.289062 11.84375 -9.703125 13.09375 -8.484375 C 14.351562 -7.273438 16.015625 -6.671875 18.078125 -6.671875 C 19.335938 -6.671875 20.597656 -6.953125 21.859375 -7.515625 C 23.128906 -8.078125 24.25 -8.835938 25.21875 -9.796875 L 23.734375 -0.59375 C 23.179688 -0.40625 22.21875 -0.128906 20.84375 0.234375 C 19.46875 0.597656 18.101562 0.78125 16.75 0.78125 C 14.363281 0.78125 12.140625 0.265625 10.078125 -0.765625 C 8.015625 -1.796875 6.347656 -3.242188 5.078125 -5.109375 C 3.804688 -6.984375 3.160156 -9.160156 3.140625 -11.640625 C 3.140625 -14.992188 3.960938 -18.085938 5.609375 -20.921875 C 7.253906 -23.753906 9.535156 -26.035156 12.453125 -27.765625 C 15.367188 -29.492188 18.367188 -30.359375 21.453125 -30.359375 C 23.648438 -30.359375 25.910156 -29.859375 28.234375 -28.859375 Z M 26.75 -19.65625 "/></g></g></g><g fill="#ffffff" fill-opacity="1"><g transform="translate(318.267835, 199.267898)"><g><path d="M 13.140625 -29.578125 L 17.40625 -21.53125 L 24.203125 -29.578125 L 33.421875 -29.578125 L 20.078125 -14.203125 L 17.84375 0 L 10.15625 0 L 12.390625 -14.203125 L 3.921875 -29.578125 Z M 13.140625 -29.578125 "/></g></g></g></svg>